<?xml version="1.0" encoding="UTF-8"?>
<svg xmlns="http://www.w3.org/2000/svg" width="22.93mm" height="22.92mm" viewBox="0 0 65 64.98">
  <defs>
    <style>
      .cls-1 {
        fill: #fff;
      }

      .cls-2 {
        fill: #fec356;
      }

      .cls-3 {
        fill: #f9d293;
      }

      .cls-4 {
        fill: #231f20;
      }

      .cls-5 {
        fill: #58595b;
      }
    </style>
  </defs>
  <g id="Layer_1" data-name="Layer 1"/>
  <g id="Layer_2" data-name="Layer 2">
    <g id="Layer_1-2" data-name="Layer 1">
      <g id="disk-yellow">
        <path class="cls-5" d="M27.37,18.41L21.38,1.95c-4.33,1.57-8.39,4.09-11.87,7.56l12.37,12.37c1.6-1.6,3.48-2.75,5.48-3.48Z"/>
        <path class="cls-4" d="M21.89,21.89L9.52,9.51c-12.69,12.69-12.69,33.27,0,45.96,4.19,4.19,9.23,6.98,14.57,8.41,6.42,1.71,13.25,1.43,19.53-.85l-5.99-16.46c-2.9,1.05-6.04,1.18-9.01,.39-2.46-.66-4.79-1.94-6.73-3.87-5.86-5.86-5.86-15.36,0-21.21Z"/>
        <polygon points="32.5 32.49 32.5 32.49 32.5 32.49 32.5 32.49"/>
        <path class="cls-5" d="M37.63,46.57l5.99,16.46c4.33-1.57,8.39-4.09,11.87-7.56l-12.37-12.37c-1.6,1.6-3.48,2.75-5.48,3.48Z"/>
        <path class="cls-3" d="M21.89,43.1c1.93,1.93,4.26,3.21,6.73,3.87,2.96,.79,6.11,.66,9.01-.39,2-.73,3.88-1.87,5.48-3.48l-3.54-3.54-5.3-5.3c-.27,.27-.58,.45-.91,.58-.48,.18-1,.19-1.5,.06-.41-.11-.8-.31-1.12-.64-.98-.98-.98-2.56,0-3.54l-5.3-5.3-3.54-3.54c-5.86,5.86-5.86,15.36,0,21.21Z"/>
        <path class="cls-4" d="M40.91,1.1c-6.42-1.71-13.25-1.43-19.53,.85l5.99,16.46c2.9-1.05,6.04-1.18,9.01-.39,2.46,.66,4.79,1.94,6.73,3.87,5.86,5.86,5.86,15.36,0,21.21l12.37,12.37c12.69-12.69,12.69-33.27,0-45.96-4.19-4.19-9.23-6.98-14.57-8.41Z"/>
        <path class="cls-2" d="M36.38,18.01c-2.96-.79-6.11-.66-9.01,.39-2,.73-3.88,1.87-5.48,3.48l3.54,3.54,5.3,5.3c.27-.27,.58-.45,.92-.58,.48-.18,1-.19,1.5-.06,.41,.11,.8,.31,1.12,.64,.98,.98,.98,2.56,0,3.54l5.3,5.3,3.54,3.54c5.86-5.86,5.86-15.36,0-21.21-1.93-1.93-4.26-3.21-6.73-3.87Z"/>
        <path class="cls-1" d="M33.14,30.09c-.49-.13-1.01-.11-1.5,.06-.33,.12-.65,.31-.92,.58-.98,.98-.98,2.56,0,3.54,.32,.32,.71,.53,1.12,.64,.49,.13,1.01,.11,1.5-.06,.33-.12,.65-.31,.91-.58,.98-.98,.98-2.56,0-3.54-.32-.32-.71-.53-1.12-.64Zm-.64,2.4h0Z"/>
      </g>
    </g>
  </g>
</svg>