<?xml version="1.0" encoding="UTF-8"?>
<svg xmlns="http://www.w3.org/2000/svg" width="22.93mm" height="22.93mm" viewBox="0 0 65 65.01">
  <defs>
    <style>
      .cls-1 {
        fill: #fff;
      }

      .cls-2 {
        fill: #96d8ed;
      }

      .cls-3 {
        fill: #231f20;
      }

      .cls-4 {
        fill: #22bce5;
      }

      .cls-5 {
        fill: #58595b;
      }
    </style>
  </defs>
  <g id="Layer_1" data-name="Layer 1"/>
  <g id="Layer_2" data-name="Layer 2">
    <g id="Layer_1-2" data-name="Layer 1">
      <g id="disk-sky">
        <path class="cls-5" d="M47.43,31.2l17.45-1.53c-.4-4.59-1.78-9.17-4.23-13.42l-15.16,8.75c1.13,1.96,1.76,4.08,1.94,6.19Z"/>
        <path class="cls-3" d="M45.49,25.01l15.16-8.75C51.67,.71,31.79-4.62,16.25,4.36c-5.13,2.96-9.14,7.11-11.89,11.9C1.04,22.01-.46,28.69,.12,35.34l17.45-1.53c-.27-3.07,.42-6.15,1.95-8.8,1.27-2.21,3.11-4.13,5.48-5.5,7.17-4.14,16.35-1.68,20.49,5.49Z"/>
        <polygon points="32.5 32.51 32.5 32.51 32.5 32.51 32.5 32.51"/>
        <path class="cls-5" d="M17.57,33.81L.12,35.34c.4,4.59,1.78,9.17,4.23,13.42l15.16-8.75c-1.13-1.96-1.76-4.08-1.94-6.19Z"/>
        <path class="cls-2" d="M25,19.52c-2.37,1.37-4.21,3.29-5.48,5.5-1.53,2.66-2.22,5.73-1.95,8.8,.18,2.12,.81,4.23,1.94,6.19l4.33-2.5,6.5-3.75c-.19-.33-.29-.68-.32-1.03-.04-.51,.07-1.02,.33-1.46,.21-.37,.51-.69,.91-.92,1.2-.69,2.72-.28,3.42,.92l6.5-3.75,4.33-2.5c-4.14-7.17-13.32-9.63-20.49-5.49Z"/>
        <path class="cls-3" d="M60.64,48.75c3.31-5.75,4.81-12.43,4.23-19.08l-17.45,1.53c.27,3.07-.42,6.15-1.95,8.8-1.27,2.21-3.11,4.13-5.48,5.5-7.17,4.14-16.35,1.68-20.49-5.49l-15.16,8.75c8.97,15.54,28.85,20.87,44.4,11.9,5.13-2.96,9.14-7.11,11.89-11.9Z"/>
        <path class="cls-4" d="M45.48,40c1.53-2.66,2.22-5.73,1.95-8.8-.18-2.12-.81-4.23-1.94-6.19l-4.33,2.5-6.5,3.75c.19,.33,.29,.68,.32,1.03,.04,.51-.07,1.02-.33,1.46-.21,.37-.51,.69-.91,.92-1.2,.69-2.72,.28-3.42-.92l-6.5,3.75-4.33,2.5c4.14,7.17,13.32,9.63,20.49,5.49,2.37-1.37,4.21-3.29,5.48-5.5Z"/>
        <path class="cls-1" d="M34.65,33.75c.25-.44,.37-.95,.33-1.46-.03-.35-.13-.71-.32-1.03-.69-1.2-2.22-1.61-3.42-.92-.39,.23-.69,.55-.91,.92-.25,.44-.37,.95-.33,1.46,.03,.35,.13,.71,.32,1.03,.69,1.2,2.22,1.61,3.42,.92,.39-.23,.69-.55,.91-.92Zm-2.16-1.24h0Z"/>
      </g>
    </g>
  </g>
</svg>