<?xml version="1.0" encoding="UTF-8"?>
<svg xmlns="http://www.w3.org/2000/svg" width="22.93mm" height="22.93mm" viewBox="0 0 65 65">
  <defs>
    <style>
      .cls-1 {
        fill: #fff;
      }

      .cls-2 {
        fill: #adbde1;
      }

      .cls-3 {
        fill: #3e59a8;
      }

      .cls-4 {
        fill: #231f20;
      }

      .cls-5 {
        fill: #58595b;
      }
    </style>
  </defs>
  <g id="Layer_1" data-name="Layer 1"/>
  <g id="Layer_2" data-name="Layer 2">
    <g id="Layer_1-2" data-name="Layer 1">
      <g id="disk-blue">
        <path class="cls-5" d="M38.83,18.92l7.4-15.87c-4.17-1.95-8.83-3.04-13.74-3.04V17.5c2.27,0,4.41,.52,6.33,1.42Z"/>
        <path class="cls-4" d="M32.5,17.5V0C14.55,0,0,14.55,0,32.5c0,5.92,1.59,11.47,4.36,16.25,3.33,5.75,8.36,10.38,14.41,13.21l7.4-15.87c-2.79-1.3-5.11-3.44-6.65-6.09-1.28-2.21-2.02-4.76-2.02-7.49,0-8.28,6.72-15,15-15Z"/>
        <polygon points="32.5 32.5 32.5 32.5 32.5 32.5 32.5 32.5"/>
        <path class="cls-5" d="M26.17,46.08l-7.4,15.87c4.17,1.95,8.83,3.04,13.74,3.04v-17.5c-2.27,0-4.41-.52-6.33-1.42Z"/>
        <path class="cls-2" d="M17.5,32.5c0,2.73,.74,5.29,2.02,7.49,1.53,2.65,3.86,4.78,6.65,6.09,1.93,.9,4.07,1.42,6.33,1.42v-12.5c-.38,0-.73-.09-1.05-.24-.47-.22-.85-.57-1.1-1.01-.21-.37-.34-.79-.34-1.24,0-1.38,1.12-2.5,2.5-2.5v-12.5c-8.28,0-15,6.72-15,15Z"/>
        <path class="cls-4" d="M60.64,16.25c-3.33-5.75-8.36-10.38-14.41-13.21l-7.4,15.87c2.79,1.3,5.11,3.44,6.65,6.09,1.28,2.21,2.02,4.76,2.02,7.49,0,8.28-6.72,15-15,15v17.5c17.95,0,32.5-14.55,32.5-32.5,0-5.92-1.59-11.47-4.36-16.25Z"/>
        <path class="cls-3" d="M45.48,25.01c-1.53-2.65-3.86-4.78-6.65-6.09-1.93-.9-4.07-1.42-6.33-1.42v12.5c.38,0,.73,.09,1.05,.24,.47,.22,.85,.57,1.1,1.01,.21,.37,.34,.79,.34,1.24,0,1.38-1.12,2.5-2.5,2.5v12.5c8.28,0,15-6.72,15-15,0-2.73-.74-5.29-2.02-7.49Z"/>
        <path class="cls-1" d="M34.66,31.26c-.26-.44-.64-.8-1.1-1.01-.32-.15-.68-.24-1.05-.24-1.38,0-2.5,1.12-2.5,2.5,0,.46,.13,.88,.34,1.24,.26,.44,.64,.8,1.1,1.01,.32,.15,.68,.24,1.05,.24,1.38,0,2.5-1.12,2.5-2.5,0-.46-.13-.88-.34-1.24Zm-2.16,1.24h0Z"/>
      </g>
    </g>
  </g>
</svg>