<?xml version="1.0" encoding="UTF-8"?>
<svg xmlns="http://www.w3.org/2000/svg" width="22.93mm" height="22.94mm" viewBox="0 0 65.01 65.02">
  <defs>
    <style>
      .cls-1 {
        fill: #fff;
      }

      .cls-2 {
        fill: #f78f26;
      }

      .cls-3 {
        fill: #f8ba7f;
      }

      .cls-4 {
        fill: #231f20;
      }

      .cls-5 {
        fill: #58595b;
      }
    </style>
  </defs>
  <g id="Layer_1" data-name="Layer 1"/>
  <g id="Layer_2" data-name="Layer 2">
    <g id="Layer_1-2" data-name="Layer 1">
      <g id="disk-orange">
        <path class="cls-5" d="M47.26,35.11l17.25,3.04c.8-4.54,.66-9.31-.61-14.06l-16.9,4.53c.59,2.19,.64,4.39,.27,6.48Z"/>
        <path class="cls-4" d="M46.99,28.63l16.9-4.53C59.25,6.76,41.43-3.53,24.09,1.12c-5.72,1.53-10.66,4.5-14.57,8.41C4.83,14.23,1.66,20.29,.5,26.86l17.25,3.04c.54-3.03,2-5.83,4.16-8,1.8-1.8,4.08-3.18,6.72-3.89,8-2.14,16.23,2.6,18.37,10.61Z"/>
        <polygon points="32.5 32.51 32.5 32.51 32.5 32.51 32.5 32.51"/>
        <path class="cls-5" d="M17.74,29.91L.5,26.86c-.8,4.54-.66,9.31,.61,14.06l16.9-4.53c-.59-2.19-.64-4.39-.27-6.48Z"/>
        <path class="cls-3" d="M28.62,18.02c-2.64,.71-4.92,2.09-6.72,3.89-2.16,2.17-3.62,4.96-4.16,8-.37,2.09-.32,4.3,.27,6.48l4.83-1.29,7.24-1.94c-.1-.37-.1-.73-.04-1.08,.09-.51,.33-.97,.7-1.33,.3-.3,.67-.54,1.11-.65,1.33-.36,2.7,.43,3.06,1.77l7.24-1.94,4.83-1.29c-2.14-8-10.37-12.75-18.37-10.61Z"/>
        <path class="cls-4" d="M55.48,55.49c4.69-4.7,7.86-10.76,9.03-17.33l-17.25-3.04c-.54,3.03-2,5.83-4.16,8-1.8,1.8-4.08,3.18-6.72,3.89-8,2.14-16.23-2.6-18.37-10.61L1.11,40.92c4.65,17.34,22.47,27.63,39.8,22.98,5.72-1.53,10.66-4.5,14.57-8.41Z"/>
        <path class="cls-2" d="M43.1,43.11c2.16-2.17,3.62-4.96,4.16-8,.37-2.09,.32-4.3-.27-6.48l-4.83,1.29-7.24,1.94c.1,.37,.1,.73,.04,1.08-.09,.51-.33,.97-.7,1.33-.3,.3-.67,.54-1.11,.65-1.33,.36-2.7-.43-3.06-1.77l-7.24,1.94-4.83,1.29c2.14,8,10.37,12.75,18.37,10.61,2.64-.71,4.92-2.09,6.72-3.89Z"/>
        <path class="cls-1" d="M34.26,34.27c.36-.36,.61-.82,.7-1.33,.06-.35,.06-.71-.04-1.08-.36-1.33-1.73-2.13-3.06-1.77-.44,.12-.81,.35-1.11,.65-.36,.36-.61,.82-.7,1.33-.06,.35-.06,.71,.04,1.08,.36,1.33,1.73,2.13,3.06,1.77,.44-.12,.81-.35,1.11-.65Zm-1.76-1.76h0Z"/>
      </g>
    </g>
  </g>
</svg>