<?xml version="1.0" encoding="UTF-8"?>
<svg xmlns="http://www.w3.org/2000/svg" width="22.94mm" height="22.93mm" viewBox="0 0 65.02 65.01">
  <defs>
    <style>
      .cls-1 {
        fill: #fff;
      }

      .cls-2 {
        fill: #d968a8;
      }

      .cls-3 {
        fill: #f7cbdf;
      }

      .cls-4 {
        fill: #231f20;
      }

      .cls-5 {
        fill: #58595b;
      }
    </style>
  </defs>
  <g id="Layer_1" data-name="Layer 1"/>
  <g id="Layer_2" data-name="Layer 2">
    <g id="Layer_1-2" data-name="Layer 1">
      <g id="disk-pink">
        <path class="cls-5" d="M35.45,17.81L38.89,.64c-4.52-.91-9.29-.87-14.07,.29l4.14,17c2.2-.54,4.4-.54,6.49-.12Z"/>
        <path class="cls-4" d="M28.96,17.93L24.82,.92C7.38,5.17-3.31,22.75,.93,40.19c1.4,5.75,4.26,10.77,8.08,14.76,4.59,4.8,10.57,8.11,17.12,9.43l3.44-17.17c-3.02-.61-5.78-2.13-7.9-4.34-1.76-1.84-3.09-4.15-3.73-6.8-1.96-8.05,2.98-16.16,11.03-18.12Z"/>
        <polygon points="32.51 32.5 32.51 32.5 32.51 32.5 32.51 32.5"/>
        <path class="cls-5" d="M29.56,47.2l-3.44,17.17c4.52,.91,9.29,.87,14.07-.29l-4.14-17c-2.2,.54-4.4,.54-6.49,.12Z"/>
        <path class="cls-3" d="M17.93,36.05c.65,2.66,1.97,4.96,3.73,6.8,2.12,2.21,4.88,3.74,7.9,4.34,2.08,.42,4.29,.42,6.49-.12l-1.18-4.86-1.77-7.29c-.37,.09-.73,.09-1.08,.02-.5-.1-.96-.36-1.31-.73-.29-.31-.52-.69-.63-1.13-.33-1.34,.5-2.69,1.84-3.02l-1.77-7.29-1.18-4.86c-8.05,1.96-12.99,10.07-11.03,18.12Z"/>
        <path class="cls-4" d="M56.01,10.06C51.42,5.26,45.44,1.95,38.89,.64l-3.44,17.17c3.02,.61,5.78,2.13,7.9,4.34,1.76,1.84,3.09,4.15,3.73,6.8,1.96,8.05-2.98,16.16-11.03,18.12l4.14,17c17.44-4.24,28.14-21.82,23.9-39.26-1.4-5.75-4.26-10.77-8.08-14.76Z"/>
        <path class="cls-2" d="M43.35,22.15c-2.12-2.21-4.88-3.74-7.9-4.34-2.08-.42-4.29-.42-6.49,.12l1.18,4.86,1.77,7.29c.37-.09,.73-.09,1.08-.02,.5,.1,.96,.36,1.31,.73,.29,.31,.52,.69,.63,1.13,.33,1.34-.5,2.69-1.84,3.02l1.77,7.29,1.18,4.86c8.05-1.96,12.99-10.07,11.03-18.12-.65-2.66-1.97-4.96-3.73-6.8Z"/>
        <path class="cls-1" d="M34.31,30.78c-.35-.37-.81-.62-1.31-.73-.35-.07-.71-.07-1.08,.02-1.34,.33-2.16,1.68-1.84,3.02,.11,.44,.33,.82,.63,1.13,.35,.37,.81,.62,1.31,.73,.35,.07,.71,.07,1.08-.02,1.34-.33,2.16-1.68,1.84-3.02-.11-.44-.33-.82-.63-1.13Zm-1.8,1.72h0Z"/>
      </g>
    </g>
  </g>
</svg>