<?xml version="1.0" encoding="UTF-8"?>
<svg xmlns="http://www.w3.org/2000/svg" width="22.93mm" height="22.93mm" viewBox="0 0 65 65">
  <defs>
    <style>
      .cls-1 {
        fill: #fff;
      }

      .cls-2 {
        fill: #a44198;
      }

      .cls-3 {
        fill: #d35fa4;
      }

      .cls-4 {
        fill: #231f20;
      }

      .cls-5 {
        fill: #58595b;
      }
    </style>
  </defs>
  <g id="Layer_1" data-name="Layer 1"/>
  <g id="Layer_2" data-name="Layer 2">
    <g id="Layer_1-2" data-name="Layer 1">
      <g id="disk-purple">
        <path class="cls-5" d="M18.92,26.17L3.04,18.76C1.1,22.94,0,27.59,0,32.5H17.5c0-2.27,.52-4.41,1.42-6.33Z"/>
        <path class="cls-4" d="M17.5,32.5H0c0,17.95,14.55,32.5,32.5,32.5,5.92,0,11.47-1.59,16.25-4.36,5.75-3.33,10.38-8.36,13.21-14.41l-15.87-7.4c-1.3,2.79-3.44,5.11-6.09,6.65-2.21,1.28-4.76,2.02-7.49,2.02-8.28,0-15-6.72-15-15Z"/>
        <polygon points="32.5 32.5 32.5 32.5 32.5 32.5 32.5 32.5"/>
        <path class="cls-5" d="M46.08,38.83l15.87,7.4c1.95-4.17,3.04-8.83,3.04-13.74h-17.5c0,2.27-.52,4.41-1.42,6.33Z"/>
        <path class="cls-3" d="M32.5,47.5c2.73,0,5.29-.74,7.49-2.02,2.65-1.53,4.78-3.86,6.09-6.65,.9-1.93,1.42-4.07,1.42-6.33h-12.5c0,.38-.09,.73-.24,1.05-.22,.47-.57,.85-1.01,1.1-.37,.21-.79,.34-1.24,.34-1.38,0-2.5-1.12-2.5-2.5h-12.5c0,8.28,6.72,15,15,15Z"/>
        <path class="cls-4" d="M16.25,4.36C10.5,7.68,5.87,12.71,3.04,18.76l15.87,7.4c1.3-2.79,3.44-5.11,6.09-6.65,2.21-1.28,4.76-2.02,7.49-2.02,8.28,0,15,6.72,15,15h17.5C65,14.55,50.45,0,32.5,0c-5.92,0-11.47,1.59-16.25,4.36Z"/>
        <path class="cls-2" d="M25.01,19.52c-2.65,1.53-4.78,3.86-6.09,6.65-.9,1.93-1.42,4.07-1.42,6.33h12.5c0-.38,.09-.73,.24-1.05,.22-.47,.57-.85,1.01-1.1,.37-.21,.79-.34,1.24-.34,1.38,0,2.5,1.12,2.5,2.5h12.5c0-8.28-6.72-15-15-15-2.73,0-5.29,.74-7.49,2.02Z"/>
        <path class="cls-1" d="M31.26,30.34c-.44,.26-.8,.64-1.01,1.1-.15,.32-.24,.68-.24,1.05,0,1.38,1.12,2.5,2.5,2.5,.46,0,.88-.13,1.24-.34,.44-.26,.8-.64,1.01-1.1,.15-.32,.24-.68,.24-1.05,0-1.38-1.12-2.5-2.5-2.5-.46,0-.88,.13-1.24,.34Zm1.24,2.16h0Z"/>
      </g>
    </g>
  </g>
</svg>