<?xml version="1.0" encoding="UTF-8"?>
<svg xmlns="http://www.w3.org/2000/svg" width="994.33" height="998.63" viewBox="0 0 994.33 998.63">
  <defs>
    <style>
      .cls-1 {
        fill: red;
      }
    </style>
  </defs>
  <g id="Layer_1" data-name="Layer 1"/>
  <g id="Layer_2" data-name="Layer 2">
    <g id="no-sign">
      <path class="cls-1" d="M994.32,494.77c-.32-67.09-13.79-132.14-40.02-193.34-25.33-59.09-61.42-112.08-107.29-157.5-45.86-45.42-99.2-81.01-158.53-105.76C627.79,12.83,563.46,0,497.24,0c-.82,0-1.65,0-2.47,0-67.09,.32-132.14,13.79-193.34,40.02-59.09,25.33-112.08,61.42-157.5,107.29-45.42,45.86-81.01,99.2-105.76,158.52C12.55,367.22-.29,432.31,0,499.32c0,1.51,0,3.03,0,4.55,.32,67.09,13.79,132.14,40.02,193.34,25.33,59.09,61.42,112.08,107.29,157.5,45.86,45.42,99.2,81.01,158.52,105.76,60.7,25.33,125.03,38.16,191.25,38.16,.82,0,1.65,0,2.47,0,67.09-.32,132.14-13.79,193.34-40.02,59.09-25.33,112.08-61.42,157.5-107.29,45.42-45.86,81.01-99.2,105.76-158.53,25.61-61.38,38.45-126.47,38.16-193.48,0-1.51,0-3.03,0-4.54Zm-495.25,403.86c-.65,0-1.29,0-1.94,0-218.1-.01-396.08-176.91-397.13-395.25,0-1.28,0-2.56,0-3.83v-.48c-.43-89.36,28.48-174.36,82.22-243.99L741.51,814.37c-66.93,52.39-151.05,83.82-242.43,84.26Zm312.87-155.25L252.67,184.1c69-54.11,153.48-83.67,242.58-84.1,.66,0,1.29,0,1.94,0,218.1,0,396.08,176.91,397.13,395.25,0,1.28,0,2.55,0,3.83v.48c.44,91.65-30.36,176.29-82.38,243.82Z"/>
    </g>
  </g>
</svg>