<?xml version="1.0" encoding="utf-8"?>
<!-- Generator: Adobe Illustrator 26.0.3, SVG Export Plug-In . SVG Version: 6.00 Build 0)  -->
<svg version="1.1" id="Layer_1" xmlns="http://www.w3.org/2000/svg" xmlns:xlink="http://www.w3.org/1999/xlink" x="0px" y="0px"
	 viewBox="0 0 22 18" style="enable-background:new 0 0 22 18;" xml:space="preserve">
<style type="text/css">
	.st0{opacity:0.35;enable-background:new    ;}
</style>
<path d="M18,4.5v1.6C17.7,6,17.3,6,17,6h-2V4.5C15,3.7,14.3,3,13.5,3h-5C7.7,3,7,3.7,7,4.5V6H5C4.7,6,4.3,6,4,6.1V4.5C4,2,6,0,8.5,0
	h5C16,0,18,2,18,4.5z"/>
<path class="st0" d="M21,8v8c-0.9,1.2-2.4,2-4,2H5c-1.6,0-3.1-0.8-4-2V8c0.9-1.2,2.4-2,4-2h12C18.6,6,20.1,6.8,21,8z"/>
<path d="M12.5,8h-3C8.7,8,8,8.7,8,9.5l0,0C8,10.3,8.7,11,9.5,11h3c0.8,0,1.5-0.7,1.5-1.5l0,0C14,8.7,13.3,8,12.5,8z"/>
<path d="M12,14h-2c-1.1,0-2,0.9-2,2v2h6v-2C14,14.9,13.1,14,12,14z"/>
<path d="M22,11v2c0,1.1-0.4,2.2-1,3h-2c-2.2,0-4-1.8-4-4c0-1.1,0.5-2.1,1.2-2.8C16.9,8.4,17.9,8,19,8h2C21.6,8.8,22,9.9,22,11z"/>
<path d="M7,12c0,2.2-1.8,4-4,4H1c-0.6-0.8-1-1.9-1-3v-2c0-1.1,0.4-2.2,1-3h2c1.1,0,2.1,0.4,2.8,1.2C6.6,9.9,7,10.9,7,12z"/>
</svg>
