<?xml version="1.0" encoding="utf-8"?>
<!-- Generator: Adobe Illustrator 26.0.3, SVG Export Plug-In . SVG Version: 6.00 Build 0)  -->
<svg version="1.1" id="Layer_1" xmlns="http://www.w3.org/2000/svg" xmlns:xlink="http://www.w3.org/1999/xlink" x="0px" y="0px"
	 viewBox="0 0 22 20" style="enable-background:new 0 0 22 20;" xml:space="preserve">
<style type="text/css">
	.st0{opacity:0.35;enable-background:new    ;}
</style>
<path d="M22,11c0,5-4,9-9,9c-2.2,0-4.3-0.8-5.9-2.2C7.7,17.9,8.4,18,9,18c5,0,9-4,9-9c0-2.7-1.2-5.2-3.1-6.8C19,3.1,22,6.7,22,11z"
	/>
<circle class="st0" cx="9" cy="9" r="9"/>
<path d="M9,5C6.8,5,5,6.8,5,9s1.8,4,4,4s4-1.8,4-4S11.2,5,9,5z M9,10c-0.6,0-1-0.4-1-1s0.4-1,1-1s1,0.4,1,1S9.6,10,9,10z"/>
</svg>
