<?xml version="1.0" encoding="utf-8"?>
<!-- Generator: Adobe Illustrator 26.0.3, SVG Export Plug-In . SVG Version: 6.00 Build 0)  -->
<svg version="1.1" id="Layer_1" xmlns="http://www.w3.org/2000/svg" xmlns:xlink="http://www.w3.org/1999/xlink" x="0px" y="0px"
	 viewBox="0 0 20.6 20.6" style="enable-background:new 0 0 20.6 20.6;" xml:space="preserve">
<style type="text/css">
	.st0{opacity:0.35;enable-background:new    ;}
</style>
<path class="st0" d="M2,19.4l-0.8-0.8c-0.7-0.7,4.2-6.8,4.2-6.8L16.5,0.6c0.7-0.7,1.9-0.7,2.7,0L20,1.4c0.7,0.7,0.7,1.9,0,2.7
	L8.9,15.2C8.9,15.2,2.8,20.1,2,19.4z"/>
<circle cx="16.6" cy="4" r="1"/>
<circle cx="13.6" cy="7" r="1"/>
<circle cx="10.6" cy="10" r="1"/>
<path d="M5.3,11.7l-3.2,3.1c-0.8,0.7-2.8,3.9-2,4.7L1,20.4c0.8,0.8,4-1.2,4.7-2l3.2-3.1L5.3,11.7z M5.3,16.7l-1,1
	C4.1,17.9,3.8,18,3.6,18s-0.5-0.1-0.7-0.3c-0.4-0.4-0.4-1,0-1.4l1-1c0.4-0.4,1-0.4,1.4,0C5.7,15.7,5.7,16.3,5.3,16.7z"/>
</svg>
