<?xml version="1.0" encoding="utf-8"?>
<!-- Generator: Adobe Illustrator 26.0.3, SVG Export Plug-In . SVG Version: 6.00 Build 0)  -->
<svg version="1.1" id="Layer_1" xmlns="http://www.w3.org/2000/svg" xmlns:xlink="http://www.w3.org/1999/xlink" x="0px" y="0px"
	 viewBox="0 0 20 20" style="enable-background:new 0 0 20 20;" xml:space="preserve">
<style type="text/css">
	.st0{opacity:0.35;enable-background:new    ;}
</style>
<path class="st0" d="M13,7c-0.9-0.9-1.9-1.6-2.9-1.8C8.8,4.8,7.6,5.1,6.7,6C6.3,6.4,6,6.9,5.9,7.5c-0.2,1-1,1.7-2,1.8
	c-1.1,0.1-2,0.5-2.7,1.2C-0.7,12.3-0.3,15.7,2,18c1.3,1.3,3,2,4.5,2c1.2,0,2.3-0.4,3.1-1.2c0.7-0.7,1.1-1.7,1.2-2.7
	c0.1-1,0.8-1.8,1.8-2c0.6-0.1,1.1-0.4,1.5-0.8c0.9-0.9,1.2-2.1,0.8-3.4C14.8,9.7,13.9,8,13,7z"/>
<path d="M15.4,2.8L15.4,2.8L8,10.3L9.7,12l7.6-7.6l0,0C17.4,4.7,15.4,2.8,15.4,2.8z"/>
<path d="M6.5,16.1c-0.3,0.3-0.8,0.3-1.1,0l-1.4-1.4c-0.3-0.3-0.3-0.8,0-1.1c0.3-0.3,0.8-0.3,1.1,0L6.5,15
	C6.8,15.3,6.8,15.8,6.5,16.1z"/>
<circle cx="8" cy="12" r="2"/>
<path d="M16.7,4.5l-1.1-1.1c-0.4-0.4-0.4-1,0-1.4l1.6-1.6c0.4-0.4,1-0.4,1.4,0l1.1,1.1c0.4,0.4,0.4,1,0,1.4l-1.6,1.6
	C17.7,4.8,17.1,4.8,16.7,4.5z"/>
</svg>
