<?xml version="1.0" encoding="utf-8"?>
<!-- Generator: Adobe Illustrator 26.0.3, SVG Export Plug-In . SVG Version: 6.00 Build 0)  -->
<svg version="1.1" id="Layer_1" xmlns="http://www.w3.org/2000/svg" xmlns:xlink="http://www.w3.org/1999/xlink" x="0px" y="0px"
	 viewBox="0 0 20 16" style="enable-background:new 0 0 20 16;" xml:space="preserve">
<style type="text/css">
	.st0{opacity:0.35;enable-background:new    ;}
</style>
<path class="st0" d="M0,13c0,1.7,1.3,3,3,3h14c1.7,0,3-1.3,3-3V9H0V13z"/>
<path d="M4,13c0-0.2,0-3.8,0-4c0-0.6-0.4-1-1-1S2,8.4,2,9c0,0.2,0,3.8,0,4c0,0.6,0.4,1,1,1S4,13.6,4,13z"/>
<path d="M7,13c0-0.2,0-3.8,0-4c0-0.6-0.4-1-1-1S5,8.4,5,9c0,0.2,0,3.8,0,4c0,0.6,0.4,1,1,1S7,13.6,7,13z"/>
<path d="M12,13c0-0.2,0-3.8,0-4c0-0.6-0.4-1-1-1s-1,0.4-1,1c0,0.2,0,3.8,0,4c0,0.6,0.4,1,1,1S12,13.6,12,13z"/>
<path d="M15,13c0-0.2,0-3.8,0-4c0-0.6-0.4-1-1-1s-1,0.4-1,1c0,0.2,0,3.8,0,4c0,0.6,0.4,1,1,1S15,13.6,15,13z"/>
<path d="M18,13c0-0.2,0-3.8,0-4c0-0.6-0.4-1-1-1s-1,0.4-1,1c0,0.2,0,3.8,0,4c0,0.6,0.4,1,1,1S18,13.6,18,13z"/>
<path d="M17,0H3C1.3,0,0,1.3,0,3v6h20V3C20,1.3,18.7,0,17,0z"/>
</svg>
