<?xml version="1.0" encoding="utf-8"?>
<!-- Generator: Adobe Illustrator 26.0.3, SVG Export Plug-In . SVG Version: 6.00 Build 0)  -->
<svg version="1.1" id="Layer_1" xmlns="http://www.w3.org/2000/svg" xmlns:xlink="http://www.w3.org/1999/xlink" x="0px" y="0px"
	 viewBox="0 0 14.6 20" style="enable-background:new 0 0 14.6 20;" xml:space="preserve">
<style type="text/css">
	.st0{opacity:0.35;enable-background:new    ;}
</style>
<path class="st0" d="M5.2,20C5.2,20,5.2,20,5.2,20c-3.3,0-5-2.6-5-5c0-2.4,1.5-5,3-7.5c1.3-2.1,2.9-4.7,2.5-5.1C5.2,1.9,4.3,3,2.2,3
	C1.5,3,0.9,2.8,0.5,2.5c-0.6-0.3-0.6-1.1-0.2-1.6l0,0c0.3-0.3,0.8-0.3,1.2-0.1C1.7,0.9,2,1,2.2,1c0.9,0,1.5-0.2,2.1-0.5
	C4.9,0.2,5.5,0,6.2,0c1.2,0,2,1.1,2,2c0,2.2-1.4,5-2.3,7.4C4.9,12,3.5,16,5.5,16c2,0-0.4-5.9,5-9.1l3.3,5.5C9.6,12.8,12.8,20,5.2,20
	z"/>
<path d="M13.6,13c-0.3,0-0.7-0.2-0.9-0.5l-3-5c-0.3-0.5-0.1-1.1,0.3-1.4c0.5-0.3,1.1-0.1,1.4,0.3l3,5c0.3,0.5,0.1,1.1-0.3,1.4
	C14,13,13.8,13,13.6,13z"/>
<circle cx="9.2" cy="13" r="1"/>
<circle cx="8.2" cy="16" r="1"/>
<circle cx="4.2" cy="13" r="1"/>
<circle cx="5.2" cy="10" r="1"/>
<circle cx="6.2" cy="7" r="1"/>
</svg>
