<?xml version="1.0" encoding="utf-8"?>
<!-- Generator: Adobe Illustrator 26.0.3, SVG Export Plug-In . SVG Version: 6.00 Build 0)  -->
<svg version="1.1" id="Layer_1" xmlns="http://www.w3.org/2000/svg" xmlns:xlink="http://www.w3.org/1999/xlink" x="0px" y="0px"
	 viewBox="0 0 22 21" style="enable-background:new 0 0 22 21;" xml:space="preserve">
<style type="text/css">
	.st0{opacity:0.35;enable-background:new    ;}
</style>
<rect x="5" y="6" width="2" height="5"/>
<rect x="9" y="6" width="2" height="5"/>
<rect x="9" y="13" width="2" height="5"/>
<rect x="13" y="13" width="2" height="5"/>
<path d="M19,10c-0.6,0-1-0.4-1-1V1c0-0.6,0.4-1,1-1s1,0.4,1,1v8C20,9.6,19.6,10,19,10z"/>
<path class="st0" d="M17.5,11h-13C3.1,11,2,9.9,2,8.5S3.1,6,4.5,6H12c2,0,6,3,6,3V1c0,0-4,3-6,3H4.5C2,4,0,6,0,8.5S2,13,4.5,13h13
	c1.4,0,2.5,1.1,2.5,2.5S18.9,18,17.5,18H6v2h11.5c2.5,0,4.5-2,4.5-4.5S20,11,17.5,11z"/>
<path d="M6,21c-0.6,0-1-0.4-1-1v-2c0-0.6,0.4-1,1-1s1,0.4,1,1v2C7,20.6,6.6,21,6,21z"/>
</svg>
