<?xml version="1.0" encoding="utf-8"?>
<!-- Generator: Adobe Illustrator 26.0.3, SVG Export Plug-In . SVG Version: 6.00 Build 0)  -->
<svg version="1.1" id="Layer_1" xmlns="http://www.w3.org/2000/svg" xmlns:xlink="http://www.w3.org/1999/xlink" x="0px" y="0px"
	 viewBox="0 0 21 21" style="enable-background:new 0 0 21 21;" xml:space="preserve">
<style type="text/css">
	.st0{opacity:0.35;enable-background:new    ;}
	.st1{fill:none;}
</style>
<path class="st0" d="M14.1,5.2c-1.6-1.6-4.3-1.6-5.9,0L7.1,6.4c-0.3,0.3-0.3,0.7-0.1,1l0,0C7.2,8,7.1,8.7,6.6,9.2
	C6.2,9.6,5.8,9.7,5.4,9.7C5,9.7,4.7,9.5,4.3,9.2l0,0C4,8.9,3.5,8.9,3.1,9.2l-1.7,1.7c-1.9,1.9-1.9,5.1,0,7.1l1.6,1.6
	c1,1,2.3,1.5,3.5,1.5s2.6-0.5,3.5-1.5l1.7-1.7c0.3-0.3,0.3-0.9,0-1.2l0,0c-0.3-0.3-0.5-0.7-0.5-1.1c0-0.4,0.2-0.8,0.5-1.2
	c0.5-0.5,1.2-0.7,1.8-0.3l0,0c0.3,0.2,0.7,0.1,1-0.1l1.2-1.2c1.6-1.6,1.6-4.3,0-5.9L14.1,5.2z"/>
<path d="M21,1.2L19.8,0c0,0-1.9,0.7-2.3,1.2c-0.6,0.6-0.6,1.7,0,2.3c0.6,0.6,1.7,0.6,2.3,0C20.3,3.1,21,1.2,21,1.2z"/>
<path class="st1" d="M2.5,16.9L2.5,16.9l1.5,1.5l0,0l3.1-3.7l-0.9-0.9L2.5,16.9z"/>
<path d="M20.1,2.3l-1.4-1.4l-8.7,8c-0.6,0.6-0.6,1.5,0,2.1l0,0c0.6,0.6,1.6,0.6,2.1,0L20.1,2.3z"/>
<circle cx="17" cy="2" r="1"/>
<circle cx="19" cy="4" r="1"/>
<path d="M4.1,17L4.1,17c-0.5-0.5-0.4-1.2,0-1.7L6.7,13c0.2-0.2,0.6-0.2,0.8,0L8,13.5c0.2,0.2,0.2,0.6,0,0.8l-2.3,2.6
	C5.3,17.4,4.5,17.4,4.1,17z"/>
</svg>
